<svg id="Layer_1" xmlns="http://www.w3.org/2000/svg" viewBox="-329 252 300 57"><style>.st0{fill:#A8C5EB;} .st1{fill:#77685A;}</style><path class="st0" d="M-215.9 272.4c-.1-2.9-1.2-7.1-2.2-9.5s0-3.6-2.1-6.3c-2.1-2.8-3.8-1.8-7.8-1.6-4.1.2-6.1-.9-10.2-2s-10.7-1.4-15.3 0c-4.7 1.4-12 5.9-12.3 13.6-.3 7.7 1.6 17.6 1.6 17.6-.5-3.4-.2-12.5-.2-12.5s.5-3.3.7 2.9c.3 6.1.9 5.4.8 9.1-.1 3.7-1.7 6.9-1.6 7.7.2.7 1.6 1.1 3.9 1.1s3.2-.1 3.2-.9-1.8-1.1-2-2.8c-.3-1.7.8-4.7 1.6-7.2 0 0 1.4-1.9 3.3-2.8 0 0 1.3-.1 2.3-.2 0 0 1.9 3.8 1.9 5 0 2.9-.4 3.7-.6 5-.2 1.3-.7 2.5-.2 2.8.5.4 2 .5 3.7.5 1.8 0 2.4-.4 2.3-.8-.2-.9-1.8-.7-1.6-2.8.2-2.9.9-3.8.9-5 0-1.2-.3-5.9-.3-5.9 1.4-.2 5.6-1.1 5.6-1.1 1.5-.2 1.7-.7 1.8 1.3s.1 5.3-.3 8.2c-.4 2.8-.5 3-1.1 4-.6 1-1.6 2 .6 2.5 2.1.4 4.3.4 4.4-.4.1-.8-1-.9-.6-2.3.6-2.2.9-3.1 1.2-4.3.2-1.2.6-6.8.6-6.8s1.2 7.8.9 10.2c-.2 1.2-.7 2.3-.2 2.8.6.5 2.5.5 3.8.5s1.5-.3 1.6-.8c.1-1.2-1.2-.8-1.3-2.2 0-.8-.1-2.8-.1-5 0-2-.2-4.8-.2-6.1.1-2.7-.5-4.5.7-5.8 1.3-1.3 2.6-1 3.7-.5s1.3 1.7 1.6 1.4c.3-.3.1-1.4.1-1.4 2.9.4 3.6 2.7 3.5 3.9s.3 5.9.6 9.3c.3 3.4-.5 4.8-.5 4.8-.6.6-1.1 0-1.4.4s-.3.9.3 1.4c.5.4.3 1.2 1.1 1.2s2-1 2-3.3.4-5.7.9-9c.4-3.6 1-5 .9-7.9zm-50.3 6.5c-.5-1.1 0-1.6-1-2.9s-1.7-.8-3.6-.7c-1.9.1-2.8-.4-4.7-.9s-4.9-.6-7 0-5.5 2.7-5.6 6.2.8 8 .8 8c-.2-1.6-.1-5.7-.1-5.7s.2-1.5.3 1.3c.1 2.8.4 2.5.4 4.2-.1 1.7-.8 3.2-.7 3.5.1.3.7.5 1.8.5s1.4 0 1.4-.4-.8-.5-.9-1.3c-.1-.8.4-2.2.7-3.3 0 0 .7-.9 1.5-1.3 0 0 .6 0 1-.1 0 0 .9 1.8.9 2.3 0 1.3-.2 1.7-.3 2.3-.1.6-.3 1.1-.1 1.3.2.2.9.2 1.7.2.8 0 1.1-.2 1.1-.4-.1-.4-.8-.3-.8-1.3.1-1.3.4-1.7.4-2.3 0-.5-.2-2.7-.2-2.7.6-.1 2.6-.5 2.6-.5.7-.1.8-.3.8.6s0 2.4-.2 3.7c-.2 1.3-.2 1.4-.5 1.8-.3.5-.7.9.3 1.1 1 .2 2 .2 2-.2.1-.4-.4-.4-.3-1.1.3-1 .4-1.4.5-2 .1-.6.3-3.1.3-3.1s.5 3.6.4 4.7c-.1.6-.3 1-.1 1.3.3.2 1.2.2 1.7.2.6 0 .7-.1.7-.3 0-.5-.6-.4-.6-1 0-.4-.1-1.3 0-2.3 0-.9-.1-2.2-.1-2.8 0-1.3-.2-2.1.3-2.7.6-.6 1.2-.5 1.7-.2.5.2.6.8.7.6.2-.2 0-.7 0-.7 1.3.2 1.6 1.2 1.6 1.8 0 .5.2 2.7.3 4.3.1 1.5-.2 2.2-.2 2.2-.3.3-.5 0-.7.2-.2.2-.1.4.1.6.2.2.1.5.5.5s.9-.5.9-1.5.2-2.6.4-4.1c.2-1.6.5-2.2.5-3.5.4-1-.1-3-.6-4.1zm-23.9 0c-.5-1.1 0-1.6-1-2.9s-1.7-.8-3.6-.7c-1.9.1-2.8-.4-4.7-.9s-4.9-.6-7 0-5.5 2.7-5.6 6.2.8 8 .8 8c-.2-1.6-.1-5.7-.1-5.7s.2-1.5.3 1.3c.1 2.8.4 2.5.4 4.2-.1 1.7-.8 3.2-.7 3.5.1.3.7.5 1.8.5s1.4 0 1.4-.4-.8-.5-.9-1.3c-.1-.8.4-2.2.7-3.3 0 0 .7-.9 1.5-1.3 0 0 .6 0 1-.1 0 0 .9 1.8.9 2.3 0 1.3-.2 1.7-.3 2.3-.1.6-.3 1.1-.1 1.3.2.2.9.2 1.7.2.8 0 1.1-.2 1.1-.4-.1-.4-.8-.3-.8-1.3.1-1.3.4-1.7.4-2.3 0-.5-.2-2.7-.2-2.7.6-.1 2.6-.5 2.6-.5.7-.1.8-.3.8.6s0 2.4-.2 3.7c-.2 1.3-.2 1.4-.5 1.8-.3.5-.7.9.3 1.1 1 .2 2 .2 2-.2.1-.4-.4-.4-.3-1.1.3-1 .4-1.4.5-2 .1-.6.3-3.1.3-3.1s.5 3.6.4 4.7c-.1.6-.3 1-.1 1.3.3.2 1.2.2 1.7.2.6 0 .7-.1.7-.3 0-.5-.6-.4-.6-1 0-.4-.1-1.3 0-2.3 0-.9-.1-2.2-.1-2.8 0-1.3-.2-2.1.3-2.7.6-.6 1.2-.5 1.7-.2.5.2.6.8.7.6.2-.2 0-.7 0-.7 1.3.2 1.6 1.2 1.6 1.8 0 .5.2 2.7.3 4.3.1 1.5-.2 2.2-.2 2.2-.3.3-.5 0-.7.2-.2.2-.1.4.1.6.2.2.1.5.5.5s.9-.5.9-1.5.2-2.6.4-4.1c.2-1.6.5-2.2.5-3.5.4-1-.1-3-.6-4.1zm-23.2 4.1c-.3-.8 0-1.1-.7-2s-1.2-.6-2.5-.5-1.9-.3-3.3-.6c-1.3-.4-3.4-.4-4.9 0s-3.8 1.9-3.9 4.3c0 2.4.6 5.6.6 5.6-.2-1.1-.1-4-.1-4s.1-1 .2.9c.1 2 .3 1.7.3 2.9s-.5 2.2-.5 2.4.5.3 1.2.3 1 0 1-.3c0-.2-.6-.4-.7-.9 0-.4.4-1.4.6-2.1 0 0 .5-.6 1-.9 0 0 .4 0 .7-.1 0 0 .6 1.2.6 1.6 0 .9-.1 1.2-.2 1.6 0 .4-.1.8 0 .9.2.1.6.2 1.2.2s.8-.1.7-.3c-.1-.3-.6-.2-.5-.9.1-.9.3-1.2.3-1.6s-.1-1.9-.1-1.9c.4-.1 1.8-.4 1.8-.4.5 0 .6-.2.6.5s0 1.7-.1 2.6c-.1.9-.1 1-.3 1.3-.2.3-.5.7.2.8.7.1 1.4.1 1.4-.1s-.3-.3-.2-.7c.2-.7.3-1 .4-1.4.1-.4.2-2.2.2-2.2s.4 2.5.3 3.3c0 .4-.2.7-.1.9.2.2.8.2 1.2.2s.5-.1.5-.2c0-.4-.4-.3-.4-.7v-1.6c0-.6-.1-1.5-.1-1.9 0-.9-.2-1.4.2-1.8.4-.4.8-.3 1.2-.2.4.2.4.5.5.4s0-.5 0-.5c.9.1 1.1.9 1.1 1.2 0 .4.1 1.9.2 3s-.2 1.5-.2 1.5c-.2.2-.4 0-.5.1-.1.1-.1.3.1.4.2.1.1.4.4.4.3 0 .6-.3.6-1.1 0-.7.1-1.8.3-2.9s.4-1.5.3-2.4c.1-1-.3-2.3-.6-3.1z"/><path class="st1" d="M-194.6 291.9c-1.4.4-2.9.6-4.4.6-9.7 0-11.5-7-11.5-13.1 0-8.4 3.7-12 9.1-12 6.7 0 7.7 5.3 7.7 7.7h-3.5c0-2 0-5.7-4.5-5.7-4.6 0-5.8 5-5.8 9.5 0 6.8 3.3 11.6 9.2 11.6 1.2 0 2.4-.2 3.6-.6l.1 2zm2.1-8.2c0-5.3 2.1-8.9 7.1-8.9s7.3 3.6 7.3 8.9c0 5.4-2.3 8.6-7.3 8.6s-7.1-3.2-7.1-8.6zm7.1 7.2c3.6 0 4.4-3.6 4.4-7.1 0-3.7-.7-7.6-4.4-7.6-3.6 0-4.2 4-4.2 7.6 0 3.5.6 7.1 4.2 7.1zm11.2-15.7h2.5v4.1h.1c.9-2.1 2.3-4.5 5.2-4.5s4 2.5 4 4.4h.1c.4-1.2 1.9-4.4 5.1-4.4 2.7 0 4 2 4 4.7v12.4h-2.6v-11.3c0-1.3 0-3.7-2.4-3.7-3 0-4.3 4.7-4.3 7.5v7.5h-2.6v-10.8c0-1.8 0-4.1-2.3-4.1-3 0-4.3 4.6-4.3 7.8v7.2h-2.6v-16.8h.1zm26 0h2.6v3.2h.1c.4-1.2 1.9-3.6 4.6-3.6 4 0 5.9 3.7 5.9 9 0 4.7-1.7 8.5-6 8.5-3.1 0-4.1-2.3-4.5-3.4h-.1v10.5h-2.6v-24.2zm6.7 15.4c2.8 0 3.6-3.8 3.6-6.9 0-4.1-1.2-7.2-3.6-7.2-2.4 0-4 3.5-4 6.9-.1 2.4.9 7.2 4 7.2zm18.8-1.1c-.6.8-2.1 2.7-4.9 2.7-2.7 0-4.5-2-4.5-4.2 0-4.9 6.3-5.2 9.4-5.3v-2.2c0-1.8-.2-4.3-3-4.3-2.7 0-2.8 2.1-3 3.3h-3c.2-2 1.2-4.7 6.1-4.7 4.9 0 5.5 3.2 5.5 5.6v11.5h-2.6v-2.4zm0-5.4c-.9.1-6.6 0-6.6 3.6 0 1.8 1.1 2.8 2.6 2.8 2.1 0 4-2 4-4.6v-1.8zm10.8-9.7h.1c.6-1.8 3-7.1 8-7.1 5.5 0 6.1 4.7 6.1 7.8v16.8h-2.8v-16.1c0-2.9-.3-6-3.8-6-5 0-7.6 8.4-7.6 11.2v10.9h-2.8v-24.1h2.8v6.6zm27.5 15.1c-.6.8-2.1 2.7-4.9 2.7-2.7 0-4.5-2-4.5-4.2 0-4.9 6.3-5.2 9.4-5.3v-2.2c0-1.8-.2-4.3-3-4.3-2.7 0-2.8 2.1-3 3.3h-3c.2-2 1.2-4.7 6.1-4.7 4.9 0 5.5 3.2 5.5 5.6v11.5h-2.6v-2.4zm0-5.4c-.9.1-6.6 0-6.6 3.6 0 1.8 1.1 2.8 2.6 2.8 2.1 0 4-2 4-4.6v-1.8zm7.4-8.9h2.5v4.1h.1c1-2.1 2.7-4.5 6-4.5 2.9 0 4 2.5 4 4.4v12.7H-67v-10.8c0-1.8 0-4.1-2.3-4.1-3.5 0-5.1 4.6-5.1 7.8v7.2H-77v-16.8zm17.6 0h2.5v4.1h.1c1-2.1 2.7-4.5 6-4.5 2.9 0 4 2.5 4 4.4v12.7h-2.6v-10.8c0-1.8 0-4.1-2.3-4.1-3.5 0-5.1 4.6-5.1 7.8v7.2h-2.6v-16.8zm21.7 16.8l-6.6-16.8h2.9l5.1 13.2 4.6-13.2h2.6l-8.5 23.5H-40l2.3-6.7z"/><path class="st0" d="M-214.7 264.6c0-2.1 1.7-3.7 3.7-3.7s3.7 1.7 3.7 3.7c0 2.1-1.7 3.7-3.7 3.7s-3.7-1.6-3.7-3.7zm3.8 3.2c1.8 0 3.2-1.4 3.2-3.2 0-1.8-1.4-3.2-3.2-3.2-1.8 0-3.2 1.4-3.2 3.2 0 1.8 1.4 3.2 3.2 3.2zm-1.5-5.2h1.3c.7 0 1.6.1 1.6 1.3 0 .7-.4.8-.7 1l.7 1.7h-.8l-.6-1.6h-.8v1.6h-.7v-4zm.8 1.7h.9c.3 0 .6-.2.6-.5s-.2-.5-.7-.5h-.8v1z"/><path class="st1" d="M-327.2 306.1l-1.9-3.1h1.1l1.3 2.1 1.3-2.1h1.1l-1.9 3.1v2.7h-1v-2.7zm10.5-.2c0-1.7.5-3 2.4-3 1.8 0 2.4 1.3 2.4 3s-.5 3-2.4 3-2.4-1.3-2.4-3zm2.3 2.3c1 0 1.3-1.1 1.3-2.3 0-1.2-.3-2.3-1.3-2.3s-1.3 1.1-1.3 2.3c.1 1.3.3 2.3 1.3 2.3zm15-1.1c0 1.3-.8 1.9-2 1.9s-2-.6-2-1.9v-4h1v4c0 .7.3 1.2 1 1.2.8 0 1-.5 1-1.2v-4h1v4zm8.7-4.1h1.8c1.1 0 1.9.4 1.9 1.5 0 .9-.6 1.2-1.2 1.4.8.2.9.7 1 1.3l.4 1.6h-1l-.3-1.3c-.2-.9-.3-1.2-1.2-1.2h-.4v2.5h-1V303zm1 2.6h.4c.6 0 1.3-.1 1.3-1 0-.6-.3-.9-.9-.9h-.8v1.9zm27.4-2.6h3.3v.8h-2.3v1.7h2.2v.8h-2.2v2.6h-1V303zm13 0h1.2l2 5.8h-1l-.5-1.6h-2.1l-.5 1.6h-1l1.9-5.8zm-.2 3.5h1.6l-.8-2.5-.8 2.5zm11.6-3.5h1.4l1.6 4.7 1.6-4.7h1.3v5.8h-.9v-4.6l-1.6 4.6h-.9l-1.6-4.6v4.6h-.9V303zm14.8 0h1v5.8h-1V303zm9.9 0h1v5.1h2.3v.8h-3.3V303zm12.3 3.1l-1.9-3.1h1.1l1.3 2.1 1.3-2.1h1.1l-1.9 3.1v2.7h-1v-2.7zm27-3.1h1v5.8h-1V303zm12.9 1c-.4-.2-.9-.4-1.5-.4-.5 0-.9.2-.9.7 0 1 2.8 1.2 2.8 2.9 0 1.1-.9 1.7-2.1 1.7-.8 0-1.4-.2-1.6-.2v-1c.3.2.9.6 1.6.6.8 0 1-.4 1-.8 0-1.3-2.8-1.3-2.8-3 0-1 .9-1.5 2-1.5.7 0 1.2.1 1.4.2v.8h.1zm24.7 1.9c0-1.7.5-3 2.4-3 1.8 0 2.4 1.3 2.4 3s-.5 3-2.4 3c-1.8 0-2.4-1.3-2.4-3zm2.4 2.3c1 0 1.3-1.1 1.3-2.3 0-1.2-.3-2.3-1.3-2.3s-1.3 1.1-1.3 2.3c0 1.3.3 2.3 1.3 2.3zm14.9-1.1c0 1.3-.8 1.9-2 1.9s-2-.6-2-1.9v-4h1v4c0 .7.3 1.2 1 1.2.8 0 1-.5 1-1.2v-4h1v4zm8.8-4.1h1.8c1.1 0 1.9.4 1.9 1.5 0 .9-.6 1.2-1.2 1.4.8.2.9.7 1 1.3l.4 1.6h-1l-.3-1.3c-.2-.9-.3-1.2-1.2-1.2h-.4v2.5h-1V303zm1 2.6h.4c.6 0 1.3-.1 1.3-1 0-.6-.3-.9-.9-.9h-.8v1.9zm31.2 3c-.3.1-.9.3-1.6.3-1.7 0-2.5-1.2-2.5-3 0-1.7.6-3 2.3-3 1.4 0 2 .8 2 1.7h-1.1c0-.5-.1-1-.9-1-1 0-1.2 1.2-1.2 2.1 0 1.4.4 2.4 1.6 2.4.7 0 1.2-.3 1.4-.4v.9zm9.8-5.6h1.2l2 5.8h-1l-.5-1.6h-2.1l-.5 1.6h-1l1.9-5.8zm-.2 3.5h1.6l-.8-2.6-.8 2.6zm11.6-3.5h1.8c1.1 0 1.9.4 1.9 1.5 0 .9-.6 1.2-1.2 1.4.8.2.9.7 1 1.3l.4 1.6h-1l-.3-1.3c-.2-.9-.3-1.2-1.2-1.2h-.4v2.5h-1V303zm1 2.6h.4c.6 0 1.3-.1 1.3-1 0-.6-.3-.9-.9-.9h-.8v1.9zm11.4-2.6h3.4v.8h-2.4v1.7h2.3v.8h-2.3v1.9h2.5v.8h-3.5v-6z"/></svg>