<svg id="Layer_1" xmlns="http://www.w3.org/2000/svg" viewBox="0 0 128 128"><style>.st0{fill:#77685A;}</style><path class="st0" d="M64 0C28.7 0 0 28.7 0 64s28.7 64 64 64 64-28.7 64-64S99.3 0 64 0zm0 125.2C30.2 125.2 2.8 97.8 2.8 64S30.2 2.8 64 2.8s61.2 27.5 61.2 61.2c0 33.8-27.4 61.2-61.2 61.2z"/><path class="st0" d="M101.7 70.3c-.1-1.2-.4-2.3-.7-3.4-.7-2.7-1.5-5.4-2.7-7.9-2.6-5.6-6.2-8.7-10.8-9.5 3.8-2 6.4-5.9 6.5-10.6.1-6.8-5.3-12.5-12.1-12.6-6.5-.1-12.3 5.3-12.5 12-.1 3.3 1.1 6.5 3.4 8.9.9 1 2 1.7 3.2 2.3-3.8.6-7 2.9-9.6 7-1 1.6-1.8 3.3-2.5 5-.3-.9-.6-1.7-1-2.6-2.6-5.6-6.2-8.7-10.8-9.5 3.8-2 6.3-5.9 6.4-10.6.1-3.3-1.1-6.4-3.4-8.8-2.3-2.4-5.3-3.7-8.7-3.8-6.6-.2-12.3 5.3-12.5 12-.1 3.3 1.1 6.5 3.4 8.9.9 1 2 1.7 3.2 2.3-3.8.6-7 2.9-9.6 7-3.2 5.1-4.4 10.7-5.2 15-.5 2.8.8 4.9 3.1 5.4 1.1.2 3.9.3 5-3.8.6-2 1.1-4.1 1.8-6.1v28.6c0 3.6 1.9 6 4.9 6.1h.1c1.3 0 2.5-.5 3.3-1.3 1.1-1.1 1.7-2.8 1.7-4.8V81.2l1-.1v14.7c0 .9.1 2.1.6 3.2 1.1 2.1 3.1 3 5.5 2.4 2.4-.6 3.8-2.4 3.8-5.1V66c.3.8.6 1.6.9 2.5.3 1 .5 2.1.7 3.2.1.5.2 1.1.3 1.6.5 2.7 2.3 4 4.8 3.6.2 0 .4-.1.6-.2.1 0 .2.1.4.2 1.1.2 3.9.3 5-3.8.6-2 1.1-4.1 1.8-6.1V95.6c0 3.6 1.9 6 4.9 6.1h.1c1.3 0 2.5-.5 3.3-1.3 1.1-1.1 1.7-2.8 1.7-4.8V81.2h1V96c0 .9.1 2.1.6 3.2 1.1 2.1 3.1 3 5.5 2.4 2.4-.6 3.8-2.4 3.8-5.1V66.2c.3.8.6 1.6.9 2.5.3 1 .5 2.1.7 3.2.1.5.2 1.1.3 1.6.5 2.7 2.3 4 4.8 3.6s3.7-2.2 3.4-5.1c0-.5-.1-1.1-.3-1.7zM39.3 45.1c-1.7-1.7-2.6-4.1-2.6-6.7.1-5.1 4.5-9.3 9.5-9.3h.2c2.6.1 5 1.1 6.7 2.9 1.8 1.8 2.7 4.3 2.6 6.8-.1 5.3-4.2 9.3-9.4 9.3h-.1c-2.6 0-5.1-1.1-6.9-3zm22 26.5v.6c-.1-.3-.1-.7-.2-1-.3-1.2-.5-2.4-.9-3.6-.6-1.8-1.3-3.6-2-5.4l-1.3-3.5-2.9.8v36.8c0 1.7-.7 2.2-1.7 2.4-1.1.3-1.9-.1-2.4-1-.3-.6-.3-1.6-.3-1.9V78.3h-6.5v17.2c0 1.3-.3 2.3-.9 2.9-.4.4-.8.5-1.5.5-2 0-2.2-2.3-2.2-3.3V59.8l-3.2-.8-1.4 4.8c-.9 2.9-1.7 5.7-2.5 8.6-.6 2.1-1.4 1.9-1.8 1.9-.9-.2-1.2-.9-1-2.2.7-4.1 1.9-9.4 4.8-14 2.8-4.4 6.1-6.2 10.4-5.9 1.7.1 3.4.1 5.1 0 5.2-.4 8.9 2.1 11.6 8 .9 1.9 1.5 3.9 2 5.8-.5 2-.9 3.9-1.2 5.6zm13.5-26.4C73 43.4 72 41 72.1 38.4c.1-5.1 4.5-9.3 9.5-9.3h.2c5.3.1 9.5 4.5 9.4 9.8-.1 5.3-4.2 9.3-9.4 9.3h-.1c-2.6 0-5.1-1.1-6.9-3zm23.6 29c-.7.1-1.4.1-1.7-1.5l-.3-1.5c-.2-1.2-.4-2.4-.8-3.6-.6-1.9-1.3-3.7-2-5.5l-.9-2.2-.6-1.1-2.8.8v36.8c0 1.7-.7 2.2-1.7 2.4-1.1.3-1.9-.1-2.4-1-.2-.7-.2-1.7-.2-2V78.4h-6.5V95.6c0 1.3-.3 2.3-.9 2.9-.4.4-.8.5-1.5.5-2 0-2.2-2.3-2.2-3.3V59.9l-3.2-.9-1.4 4.8c-.9 2.9-1.7 5.7-2.5 8.6-.6 2.1-1.4 1.9-1.8 1.9-.9-.2-1.2-.9-1-2.2.7-4.1 1.9-9.4 4.8-14 2.8-4.4 6.1-6.2 10.4-5.9 1.7.1 3.4.1 5.1 0 5.2-.4 8.9 2.1 11.6 8 1.1 2.4 1.8 4.9 2.5 7.5.3 1.1.6 2.2 1 3.3.1.3.1.7.2 1.3.1 1.7-.7 1.8-1.2 1.9z"/></svg>