<svg id="Layer_1" xmlns="http://www.w3.org/2000/svg" viewBox="0 0 128 128"><style>.st0{fill:#77685A;}</style><path class="st0" d="M64 0C28.7 0 0 28.7 0 64s28.7 64 64 64 64-28.7 64-64S99.3 0 64 0zm0 125.2C30.2 125.2 2.8 97.8 2.8 64S30.2 2.8 64 2.8s61.2 27.5 61.2 61.2-27.4 61.2-61.2 61.2z"/><path class="st0" d="M89.9 34l-2.5-1.5 6.4-9.7-8.5-4.9-5.4 10.2-2.9-1.4-23 38.5 2.4 1.4-2.2 4.1 8.8 5.1 2.4-4.1 2.3 1.2 5.2-9c2.3.7 8.1 3 9.5 7.5 1 3.2-.4 7.2-4.2 11.7H66.9l-25.8-15-3.5 6.4 5.9 3.4-1.3 2.6L65 93.4l-2 6.4H33.1v9.6h59.4v-9.6H84l-1.7-6.5C85 91.1 94 82.7 94.8 70.6c.6-8.6-3.2-17-11.2-25.1L89.9 34zm2.2 36.4C91.3 83 80 91.7 79.9 91.8l-.7.6 2.7 10.3h7.9v4H35.9v-4h29l3.3-10.4-22.4-12.8 1.3-2.6-5.8-3.4.9-1.6 24.1 13.9h13.2l.4-.5c4.8-5.5 6.5-10.5 5.1-14.8-2.3-7.1-12.1-9.5-12.5-9.6l-1-.2-4.9 8.6-2.3-1.3-2.4 4-4.1-2.4 2.3-4.1-2.3-1.3L78 30.4l3 1.6 5.3-10.2 3.5 2-6.4 9.6 2.8 1.6-6 11 .7.7c7.9 7.8 11.7 15.7 11.2 23.7z"/><path class="st0" d="M72.8 54.9c0 1.3.5 2.6 1.4 3.7 1 1 2.3 1.6 3.7 1.7h.1c2.9 0 5.2-2.2 5.2-5.1 0-2.9-2.2-5.3-5.1-5.4-2.7 0-5.2 2.4-5.3 5.1zm7.7.2c0 1.4-1.1 2.4-2.5 2.4-.6 0-1.3-.3-1.8-.8s-.7-1.1-.7-1.7c0-1.3 1.3-2.5 2.5-2.5 1.5.1 2.5 1.3 2.5 2.6z"/></svg>