<svg id="Layer_1" xmlns="http://www.w3.org/2000/svg" viewBox="0 0 128 128"><style>.st0{fill:#77685A;}</style><path class="st0" d="M64 0C28.7 0 0 28.7 0 64s28.7 64 64 64 64-28.7 64-64S99.3 0 64 0zm0 125.2C30.2 125.2 2.8 97.8 2.8 64S30.2 2.8 64 2.8s61.2 27.5 61.2 61.2-27.4 61.2-61.2 61.2z"/><path class="st0" d="M25 57h3.7l.5-8.9h-2.7zM34.9 56.9H38v19.7h-3.1zM34.6 48.1h3.5v3.7h-3.5zM58.5 56.9h-3.6l-7.2 8.6V48.1h-3.1v28.5h3.1V66.4h.1l7.7 10.2h3.9l-8.6-10.9zM76.8 56.9h-3.5l-7.2 8.6V48.1H63v28.5h3.1V66.4l7.8 10.2h3.9l-8.6-10.9zM94.8 62.5c-.1-.9-.3-1.7-.8-2.6-.4-.9-1.1-1.7-2.1-2.4s-2.3-1-4-1c-1.4 0-2.7.2-3.7.7s-1.8 1.2-2.5 2c-.6.9-1.1 1.9-1.4 3.1-.3 1.2-.4 2.5-.4 3.9 0 1.8.2 3.4.7 4.7.5 1.3 1.1 2.5 2 3.4.9.9 1.9 1.6 3.1 2 1.2.5 2.5.7 4 .7 1.1 0 2-.1 2.7-.2.7-.2 1.4-.3 2.2-.6v-1.8c-.6.1-1.1.3-1.6.4s-1.1.2-2 .2c-1.5 0-2.8-.4-3.7-1.1-1-.7-1.7-1.6-2.3-2.6-.6-1.1-1-2.2-1.2-3.5s-.3-2.4-.3-3.5H95c-.1-.3-.2-.9-.2-1.8zm-11.4.1c0-.3.1-.7.2-1.2s.3-1 .6-1.5.7-.9 1.3-1.3c.6-.4 1.3-.5 2.1-.5s1.6.2 2.1.5.9.7 1.2 1.1c.3.5.5.9.6 1.5.1.5.1 1 .1 1.4h-8.2zM98.8 57h2.7l1.5-8.9h-3.7z"/></svg>