<svg id="Layer_1" xmlns="http://www.w3.org/2000/svg" viewBox="0 0 128 128"><style>.st0{fill:#77685A;}</style><path class="st0" d="M64 0C28.7 0 0 28.7 0 64s28.7 64 64 64 64-28.7 64-64S99.3 0 64 0zm0 125.2C30.2 125.2 2.8 97.8 2.8 64S30.2 2.8 64 2.8s61.2 27.5 61.2 61.2-27.4 61.2-61.2 61.2z"/><path class="st0" d="M95.5 26H71.2l-.7-6.2H57.3l-.5 6.2H31.6l-1.1 46h13l-3.8 36.1 2.7.3L46.3 72h3.9l-.8 19.3 2.8.1.7-19.4H76l.8 19.5 2.8-.1-.8-19.4h4l3.9 36.4 2.7-.3L85.5 72h12l-2-46zm-35.6-3.5h8.2l.4 3.4h-8.9l.3-3.4zM33.3 69.3l1-40.5h58.6l1.8 40.5H33.3z"/><path class="st0" d="M47.3 52.2v1l1.6-1.1v7.7H50V51h-.9zM57 53.2h-1V56h-2.7v.9H56v2.9h1v-2.9h2.7V56H57zM62.3 52.2v1l1.6-1.1v7.7H65V51h-.9zM68.3 57.1h6.4v.8h-6.4zM68.3 55h6.4v.8h-6.4zM78 58.6c.2-.2.5-.4.8-.7l.9-.9c.3-.4.6-.7.9-1.1.3-.4.5-.8.6-1.2.2-.4.2-.9.2-1.3s-.1-.7-.2-1.1c-.1-.3-.3-.6-.5-.7-.2-.2-.5-.3-.8-.4-.3-.1-.6-.1-1-.1-.5 0-1 .1-1.3.2-.3.2-.6.4-.8.6-.2.2-.3.5-.4.7-.1.2-.1.4-.1.6h1.2c0-.1 0-.2.1-.4 0-.2.1-.3.2-.5s.2-.3.4-.4c.2-.1.4-.2.7-.2.4 0 .8.1 1 .4.3.3.4.6.4 1 0 .7-.3 1.5-1 2.6-.6 1-1.6 2.2-3 3.4v.8h5.3V59h-4c0-.1.2-.2.4-.4zM59.3 39c-.2-.2-.4-.4-.7-.5-.3-.1-.7-.2-1.2-.2s-.9.1-1.2.2-.5.3-.7.5-.3.4-.4.6c-.1.2-.1.4-.1.6h1.2v-.4c0-.2.1-.3.2-.4l.3-.3c.1-.1.4-.1.6-.1.3 0 .5.1.7.2.2.1.3.3.4.4.1.2.1.4.1.6v1.5c0-.3-.3-.3-.5-.3-.3 0-.5.1-.8.1s-.6.1-.8.2c-.3.1-.5.2-.7.4-.2.2-.4.3-.5.6-.1.2-.2.5-.2.8 0 .2 0 .4.1.6.1.2.2.4.4.5.2.2.3.3.6.4.2.1.5.1.7.1.3 0 .5 0 .7-.1l.6-.3c.2-.1.3-.2.4-.4s.2-.2.2-.3v1h1v-4.6c0-.2 0-.5-.1-.7 0-.3-.1-.5-.3-.7zm-.6 3.7c0 .3 0 .5-.1.7l-.3.6c-.2.2-.3.3-.5.4-.2.1-.4.1-.6.1-.3 0-.5-.1-.7-.3-.4-.2-.5-.5-.5-.8 0-.4.1-.6.4-.8.2-.2.5-.3.8-.4.3-.1.6-.1.9-.2h.6v.7zM66.5 39.2c-.2-.3-.5-.5-.8-.7s-.6-.2-1-.2c-.3 0-.6 0-.8.2-.2.1-.4.2-.6.4-.2.1-.3.3-.4.4-.1.2-.2.3-.2.4v-4.2h-1v7.4c0 .4.1.7.3 1.1s.4.7.8.9c.4.2.9.4 1.5.4.9 0 1.6-.3 2-.8.5-.6.7-1.4.7-2.6 0-.5-.1-1-.2-1.4 0-.6-.1-1-.3-1.3zm-.6 3.6c0 .3-.1.6-.3.9-.1.3-.3.5-.5.6-.2.2-.5.2-.8.2s-.6-.1-.8-.2c-.2-.2-.4-.4-.5-.6s-.2-.5-.2-.8c0-.3-.1-.6-.1-.9s0-.6.1-1 .2-.7.3-1c.1-.3.3-.6.5-.7.2-.2.5-.3.8-.3.3 0 .6.1.8.3s.4.4.5.7c.1.3.2.6.2.9 0 .3.1.7.1 1 0 .2-.1.6-.1.9zM69.1 44.1c.3.3.6.6 1 .8.4.2.9.3 1.6.3.3 0 .6 0 .8-.1.2 0 .5-.1.7-.2v-.6c-.2 0-.4.1-.5.1-.2 0-.4.1-.6.1-.5 0-.9-.1-1.2-.3-.3-.2-.6-.5-.8-.8-.2-.3-.3-.7-.4-1.1-.1-.4-.1-.8-.1-1.1s0-.6.1-.8c0-.3.1-.6.2-.8.1-.2.3-.4.5-.6.2-.2.4-.2.7-.2.3 0 .5.1.7.2s.3.3.3.4c.1.2.1.4.1.5v.5h1.2c0-.3 0-.6-.1-.9s-.2-.5-.4-.7c-.2-.2-.4-.4-.7-.5-.3-.1-.6-.2-1-.2-.8 0-1.5.3-2 .8s-.7 1.4-.7 2.4c0 .5.1 1 .2 1.4-.1.7.1 1.1.4 1.4z"/></svg>