<svg id="Layer_1" xmlns="http://www.w3.org/2000/svg" viewBox="0 0 128 128"><style>.st0{fill:#77685A;}</style><path class="st0" d="M64 0C28.7 0 0 28.7 0 64s28.7 64 64 64 64-28.7 64-64S99.3 0 64 0zm0 125.2C30.3 125.2 2.8 97.8 2.8 64S30.2 2.8 64 2.8s61.2 27.5 61.2 61.2-27.5 61.2-61.2 61.2z"/><path class="st0" d="M95.7 33.3l.8-.9-.7-.9C85.7 19.6 74.8 13.7 63.6 14c-18.3.5-30.9 16.9-31.4 17.6l-.7.9.7.8C41.5 44.4 51.8 50 62.8 50c18.6 0 32.4-15.9 32.9-16.7zm-32.9 14c-9.9 0-19.2-5-27.7-14.8 2.8-3.4 13.9-15.3 28.6-15.6 10.1-.4 19.9 5 29.2 15.6-3.1 3.3-15.2 14.8-30.1 14.8z"/><path class="st0" d="M64 17.2c-8.1 0-14.7 6.5-14.7 14.6S55.9 46.5 64 46.5 78.7 40 78.7 31.9 72.1 17.2 64 17.2zm0 26.5c-6.6 0-11.9-5.3-11.9-11.9 0-6.6 5.3-11.9 11.9-11.9 6.6 0 11.9 5.3 11.9 11.9 0 6.6-5.3 11.9-11.9 11.9z"/><circle class="st0" cx="64" cy="31.1" r="5.4"/><path class="st0" d="M110 73.5c-.3-4.2-1.6-8-3.8-11-2.5-3.4-6.1-5.7-9.9-6.4-2.3-.4-4.5-.2-6.2 0-1.5.2-3.6.5-5.5 1.3-3.5 1.4-6.3 4.1-7.8 7.5-1.5 3.4-1.7 7.3-.4 10.8l2.6-.9c-1-2.8-.9-6 .3-8.9 1.2-2.7 3.5-5 6.3-6.1 1.6-.6 3.4-.9 4.8-1.1 1.5-.2 3.4-.3 5.3 0 3.1.5 6.1 2.5 8.1 5.3 1.9 2.6 3 5.9 3.3 9.6 0 .7.1 1.5-.1 2.3-.2 1-.8 2-1.3 2.9-1.3 2.3-2.6 4.8-4.3 6.8l-.7.8c-1.1 1.2-2.3 2.7-2.8 4.5-.3 1.1-.3 2.2-.3 3.2v.7c0 2.6-.6 4.6-1.8 6-1.5 1.7-4.2 2.5-6.6 1.9-2.3-.6-4.5-2.3-5.7-4.7l-2.4 1.3c1.6 3.1 4.4 5.3 7.5 6.1.7.2 1.5.3 2.3.3 2.7 0 5.4-1.1 7.1-3 1.6-1.9 2.5-4.5 2.5-7.7v-.8c0-.9 0-1.7.2-2.4.4-1.2 1.3-2.3 2.3-3.4l.7-.9c1.8-2.2 3.2-4.7 4.6-7.2.6-1.1 1.3-2.3 1.6-3.7.2-1.1.2-2.2.1-3.1z"/><path class="st0" d="M95.5 66.9c2.7 1.4 4.5 4.6 4.3 7.8l2.8.2c.3-4.3-2.1-8.6-5.8-10.4-3.9-1.9-9-1-11.7 2.3-2.8 3.4-2.6 8.9.5 11.9.6.6 1.7 1.2 2.8 1.2h.1c.7-.1 1.3-.4 1.8-.9.7-.7.7-1.5.8-2.1 0-.2.1-.5.1-.6.1-.3.7-.6 1.4-.5 1 0 1.9.6 2.5 1.5.2.4.6 1.2.3 2s-1.1 1.5-1.9 2.2c-1.2 1.1-2.7 2.4-2.7 4.5 0 .9.3 1.7.5 2.4s.4 1.2.3 1.6c-.1.4-.7.8-1.4 1-.9.3-1.8.2-2.4-.1-.6-.3-.9-.9-.8-1.4l-2.7-.7c-.4 1.7.5 3.6 2.1 4.5.8.4 1.7.6 2.6.6.6 0 1.3-.1 2-.4 1.7-.5 2.9-1.6 3.3-3 .3-1.2-.1-2.3-.4-3.2-.2-.5-.4-1-.4-1.4 0-.8.7-1.5 1.8-2.5 1-.9 2.1-1.8 2.6-3.2.5-1.4.3-3.1-.6-4.5-1-1.6-2.8-2.7-4.6-2.8-1.7-.1-3.6.6-4.2 2.4-.1.5-.2.9-.2 1.3-.1.2-.1.5 0 .5-.1 0-.6-.2-.9-.5-2.1-2-2.2-5.8-.3-8.1 1.9-2.3 5.6-3 8.4-1.6zM32.4 98.5c-1.7-3-1.1-6.6-.5-8.4.9-3 2.6-5.8 4.3-8.4l8.4-13.5c1.9-2.9 3.9-6.3 4.6-10.1l-2.7-.5c-.6 3.3-2.5 6.4-4.2 9.1l-8.4 13.5c-1.7 2.6-3.6 5.7-4.6 9-1.2 3.9-.9 7.7.7 10.6 1.9 3.3 5.7 5.4 9.5 5.4 1.2 0 2.4-.2 3.5-.5l-1-2.6c-3.4 1.2-7.8-.4-9.6-3.6z"/><path class="st0" d="M54.2 84.4c-2.4-.5-5.2-.3-8.2.6l.9 2.7c2.6-.8 4.8-.9 6.8-.5 2.2.4 4.1 1.8 4.9 3.6.7 1.5.7 3.3 0 5.1-.6 1.5-1.7 3.1-3.3 4.5-.7.6-1.5 1.3-2.3 1.3-1.1 0-2-.9-3-1.8L47.9 98c-1.7-1.5-3.9-3.6-6.8-3.8-1.3-.1-2.6.3-3.4 1.1-.7.6-1 1.4-1 2.2 0 1.2.8 2.4 2.1 3 .9.4 1.8.5 2.8.5 1.8.1 3.6.1 5.4 0l1 .9c1 .9 2.7 2.5 4.8 2.5h.2c1.7-.1 3-1.1 4-2 1.9-1.7 3.2-3.6 4-5.6 1-2.4 1-5.1 0-7.2-1.2-2.6-3.7-4.5-6.8-5.2zM41.7 98.3c-.7-.1-1.3-.1-1.8-.3-.3-.1-.5-.4-.4-.7.3-.2.8-.4 1.2-.4h.1c1.1.1 2.2.6 3.2 1.4h-2.3z"/></svg>