<svg id="Layer_1" xmlns="http://www.w3.org/2000/svg" viewBox="0 0 128 128"><style>.st0{fill:#77685A;}</style><path class="st0" d="M64 0C28.7 0 0 28.7 0 64s28.7 64 64 64 64-28.7 64-64S99.3 0 64 0zm0 125.2C30.2 125.2 2.8 97.8 2.8 64S30.2 2.8 64 2.8s61.2 27.5 61.2 61.2-27.4 61.2-61.2 61.2z"/><path class="st0" d="M96.3 70.7c-3.9-.5-7.7.2-11.7 2.1-2.6 1.2-4.9 1.4-6.6.6-1.8-.8-3-2.8-3.8-5.8-1.2-4.9 0-9.7 1.4-14.7 1.2-4.5 2-9.2 2.8-13.8l.6-3.7c.2-1 .1-2.7-.6-3.9-.7-1.1-2.1-2.2-3.5-2.4-1.4-.1-3 1.1-3.6 2.1-.6 1-1 2.1-1.3 3.1l-.3.9c-1.4 4-2.7 8.1-4 12.2-.2.6-.4 1.2-.5 1.9-.2.8-.4 1.6-.7 2.3-.3.8-.7 1.7-1.2 2.2-.1 0-.3.1-.5 0 0-.1 0-.3-.1-.5l-.4-9.3c-.2-4.5-.4-9.1-.6-13.6-.1-1.3-.5-2.5-.9-3.6-.9-2.3-2.7-3.3-4.8-2.9-2.3.5-3.6 2.2-3.6 4.5V53.6c-.1 0-.1-.1-.1-.1-1.8-4.3-3.4-8.7-5.1-13.1l-1-2.5c-.2-.7-.5-1.3-.7-2-.3-1-.7-1.9-1-2.8-1.2-2.9-3.1-4.1-5.5-3.6-1 .2-1.9.8-2.4 1.7-.7 1.1-.9 2.7-.4 4.6.8 3.7 1.9 7.4 2.9 10.7.9 3.1 1.9 6.1 2.9 9.4l.7 2.4c-.1-.1-.2-.1-.2-.1-2-2.6-3.9-5.2-5.8-7.8-.9-1.2-1.8-2.4-2.6-3.7l-.7-.7c-.7-1-1.5-2.1-2.5-3-1.2-1.1-2.7-1.4-4.1-.8-1.3.6-2.2 1.9-2.2 3.4-.1 1.8.4 3.8 1.2 5.2 3.1 5.4 5.7 10 8.8 14.4 1.5 2.1 1.7 4.4 1.9 6.9l.3 2.7c.8 5.3 1.9 10.8 4.1 16.1 1.5 3.7 1 7.8.3 11.6l-.3 1.7h26.5l.2-1.1c.1-.3.1-.6.2-.9.1-.3.2-.7.2-1.1.5-2.7 2-4.7 4.7-6.1 6.1-3 12.1-6.8 18.9-12 2-1.5 4.7-2.2 7.4-2.9l1.1-.3c1.4-.4 2.7-.9 3.2-2.1.5-1.2-.1-2.4-.7-3.4-1.3-2-3.4-3.2-6.3-3.6zm3.1 6.4l-1.1.3c-2.9.8-5.9 1.6-8.3 3.4-6.7 5-12.5 8.7-18.4 11.7-3.5 1.7-5.6 4.5-6.2 8-.1.3-.1.6-.2.9H44.3c.7-3.8.9-7.8-.7-11.6-2.1-5-3.1-10.4-3.9-15.5-.1-.8-.2-1.7-.3-2.5-.3-2.7-.5-5.5-2.4-8.2-3-4.3-5.6-8.8-8.7-14.2-.6-1-.9-2.4-.8-3.7 0-.5.2-.8.5-.9.4-.2.8 0 1.2.3.8.7 1.4 1.6 2.1 2.6l.6.8c.9 1.2 1.8 2.4 2.6 3.6 1.9 2.7 3.8 5.3 5.9 7.9.7.9 1.7 1.2 2.8 1.5.4.1.8.2 1.2.4l2.7 1.1-2.4-7.7c-1-3.3-2-6.3-2.9-9.4-1-3.3-2.1-6.9-2.9-10.6-.3-1.1-.2-2 .1-2.5.1-.1.3-.3.7-.4.8-.2 1.5-.2 2.4 1.9.4.9.7 1.8 1 2.7.2.7.5 1.4.7 2.1l1 2.5c1.7 4.4 3.3 8.8 5.1 13.2.4.9 1.1 1.3 1.8 1.7.2.1.4.2.6.4l1.4 1.1.7-1.6c.1-.2.2-.3.3-.5.3-.5.7-1.2.7-2 .1-2.4 0-4.7 0-7.1V28.7c0-1 .4-1.6 1.5-1.8.4-.1 1.1-.2 1.7 1.2.4.9.7 1.9.8 2.7.2 4.5.4 9.1.6 13.6l.4 9.4c.1 1.2.4 2.7 1.6 2.9.2.1 2.4.5 3.5-.6 1-.9 1.5-2.2 1.9-3.3.3-.8.5-1.7.8-2.6.2-.6.3-1.1.5-1.7 1.3-4.1 2.7-8.1 4-12.1l.3-1c.3-.9.5-1.8 1-2.4.3-.4.9-.8 1-.8.4 0 1.1.5 1.4 1.1.3.4.4 1.3.3 2l-.6 3.7c-.8 4.5-1.6 9.1-2.7 13.5C72 57.6 70.6 63 72 68.6c1 3.8 2.7 6.4 5.3 7.6 2.5 1.2 5.5 1 9-.6s6.9-2.2 10.2-1.8c2.1.3 3.4 1 4.2 2.3.3.5.4.8.5.9-.6-.3-.9-.1-1.8.1z"/></svg>