<svg id="Layer_1" xmlns="http://www.w3.org/2000/svg" viewBox="0 0 128 128"><style>.st0{fill:#77685A;}</style><path class="st0" d="M64 0C28.7 0 0 28.7 0 64s28.7 64 64 64 64-28.7 64-64S99.3 0 64 0zm0 125.2C30.3 125.2 2.8 97.8 2.8 64S30.2 2.8 64 2.8s61.2 27.5 61.2 61.2-27.5 61.2-61.2 61.2z"/><path class="st0" d="M82.6 20.5H45.3v37.3h37.3V20.5zm-2.7 34.6H48.1V23.3h31.8v31.8zM45.8 111.3h37.3V73.9H45.8v37.4zm2.8-34.6h31.8v31.8H48.6V76.7z"/><path class="st0" d="M76 82.5l-2.1-1.9-9.2 10-9.8-10-2 1.9 9.9 10.2-9.3 10 2.1 1.9 9.1-9.9 9.8 10 2-2-9.9-10.1zM75.9 27.6l-2.5-1.3L62.6 47l-7.2-10.1-2.2 1.6L63 52.2z"/></svg>