<svg id="Layer_1" xmlns="http://www.w3.org/2000/svg" viewBox="0 0 128 128"><style>.st0{fill:#77675A;}</style><path class="st0" d="M64 0C28.7 0 0 28.7 0 64s28.7 64 64 64 64-28.7 64-64S99.3 0 64 0zm0 125.2C30.2 125.2 2.8 97.8 2.8 64S30.2 2.8 64 2.8s61.2 27.5 61.2 61.2c0 33.8-27.4 61.2-61.2 61.2z"/><path class="st0" d="M94.7 69H54.1c4.7-4 7.1-15.4 7.1-26.2 0-13.6-3.9-27.9-11.1-27.9-7.2 0-11.1 14.3-11.1 27.9C39 53.6 41.5 65 46.1 69h-.3c-1.3 0-2.8 1.3-2.8 2.6v2.6c0 .7.5 1.3.9 1.7.1.3.3.7.3 1 .2 1 .5 2 .9 3l.7 1.7c.9 2.4 1.9 4.9 3.3 7.2 3.4 5.8 4.7 12.2 3.9 19.6l-.1 1.1c-.2 2-.3 3.1.4 4.1.8 1 2.1 1 4.6 1.2h.4c2.2.1 4.3.2 6.5.2 2.8 0 5.6-.1 8.3-.2 1.5 0 3-.1 4.5-.1 1.8 0 3.1-.5 3.9-1.5s1.1-2.5.7-4.4c-.4-2-.5-4.1-.6-6.3 0-.9-.1-1.8-.2-2.7-.4-4.9 1.6-8.1 5.9-10 5.2-2.2 8.3-6.3 9.5-12.5.1-.5.1-1 .1-1.5v-.9c.1-.2.1-.5.1-.7v-2.6c0-1.3-1-2.6-2.3-2.6zm-53-26.1c0-14.9 4.4-25.3 8.4-25.3s8.4 10.4 8.4 25.3-4.4 25.3-8.4 25.3-8.4-10.4-8.4-25.3zM46 72h48v2H46v-2zm40.3 15.3c-5.4 2.3-8 6.6-7.6 12.7.1.9.1 1.7.2 2.6.1 2.2.2 4.5.7 6.7.2 1 .2 1.8-.1 2.1-.3.4-1.2.5-1.8.5-1.5 0-3 .1-4.6.1-4.8.1-9.7.3-14.5 0h-.4c-1-.1-1.9-.1-2.4-.1h-.2c-.1-.2 0-1.2.1-2.1l.1-1.1c.8-7.9-.6-14.9-4.3-21.2-1.2-2.1-2.2-4.5-3-6.8l-.7-1.5c-.3-.7-.5-2.1-.6-2.1l47-.2c-1 5.2-3.6 8.6-7.9 10.4z"/></svg>