<svg id="Layer_1" xmlns="http://www.w3.org/2000/svg" viewBox="0 0 128 128"><style>.st0{fill:#77685A;}</style><path class="st0" d="M64 0C28.7 0 0 28.7 0 64s28.7 64 64 64 64-28.7 64-64S99.3 0 64 0zm0 125.2C30.2 125.2 2.8 97.8 2.8 64S30.2 2.8 64 2.8s61.2 27.5 61.2 61.2-27.4 61.2-61.2 61.2z"/><path class="st0" d="M85.3 37.9c-11.3-4.6-18.7 4-21.4 8-5.6-8.3-13.2-11.2-21.2-8-.1.1-12.3 5.8-9.9 19.3 0 .5 1.1 12.6 30.4 33.9l1 .4.8-.5c29-21.2 30.1-33.2 30.1-33.6 2.5-13.7-9.7-19.4-9.8-19.5zm7.1 19.2c0 .1-1.3 11.3-28.4 31.2-27.1-19.9-28.4-31.1-28.5-31.4-2.1-11.6 7.9-16.3 8.2-16.5 1.8-.7 3.5-1.1 5.1-1.1 6.7 0 11.3 5.8 13.8 9.9l1.3 2.2 1.1-2.3c.3-.6 6.9-13.6 19.1-8.7.2.1 10.4 4.9 8.3 16.7z"/></svg>