<svg id="Layer_1" xmlns="http://www.w3.org/2000/svg" viewBox="0 0 128 128"><style>.st0{fill:#77685A;}</style><path class="st0" d="M64 0C28.7 0 0 28.7 0 64s28.7 64 64 64 64-28.7 64-64S99.3 0 64 0zm0 125.2C30.2 125.2 2.8 97.8 2.8 64S30.2 2.8 64 2.8s61.2 27.5 61.2 61.2-27.4 61.2-61.2 61.2z"/><path class="st0" d="M63.3 13.9H42.9v20.4h20.4V13.9zM45.6 31.5V16.7h14.8v14.8H45.6zM87.8 13.9H67.4v20.4h20.4V13.9zM85 31.5H70.2V16.7H85v14.8zM75.5 38.6H55.1V59h20.4V38.6zm-2.8 17.6H57.9V41.3h14.8v14.9zM35.2 79.3c-.6-5.7-5.6-9.9-11.3-9.3-5.7.6-9.9 5.6-9.3 11.3.5 5.4 5 9.4 10.3 9.4h1c5.7-.6 9.9-5.7 9.3-11.4zm-9.6 8.6c-4.2.4-7.9-2.7-8.3-6.8-.4-4.2 2.7-7.9 6.8-8.3h.7c3.9 0 7.2 3 7.6 6.9.5 4.1-2.6 7.8-6.8 8.2zM48.7 67.6c-5.7.6-9.9 5.6-9.3 11.3.3 2.8 1.6 5.3 3.7 7 1.9 1.5 4.2 2.4 6.6 2.4h1c2.8-.3 5.3-1.6 7-3.7 1.8-2.1 2.6-4.8 2.3-7.6-.5-5.8-5.6-10-11.3-9.4zm6.9 15.2c-1.3 1.6-3.1 2.5-5.1 2.7s-4-.4-5.6-1.7c-1.6-1.3-2.5-3.1-2.7-5.1-.4-4.2 2.7-7.9 6.8-8.3h.7c3.9 0 7.2 3 7.6 6.9.2 1.9-.4 3.9-1.7 5.5zM38.3 88.9c-2.8.3-5.3 1.6-7 3.7-1.8 2.1-2.6 4.8-2.3 7.6s1.6 5.3 3.7 7c1.9 1.5 4.2 2.4 6.6 2.4h1c5.7-.6 9.9-5.6 9.3-11.3-.5-5.8-5.6-10-11.3-9.4zm1.7 17.9c-2 .2-4-.4-5.6-1.7-1.6-1.3-2.5-3.1-2.7-5.1s.4-4 1.7-5.6c1.3-1.6 3.1-2.5 5.1-2.7h.7c3.9 0 7.2 3 7.6 6.9.5 4-2.6 7.8-6.8 8.2zM103.3 100.7l12.3-23.8-26.7-.8 14.4 24.6zm-.2-5.7l-9.4-16 17.3.5-7.9 15.5zM102.3 47.7L88 70.3h28.5l-14.2-22.6zm0 5.2l9.3 14.7H93l9.3-14.7zM67.5 100.6H96L81.8 78l-14.3 22.6zm5-2.8l9.3-14.7L91 97.8H72.5z"/></svg>