<svg id="Layer_1" xmlns="http://www.w3.org/2000/svg" viewBox="0 0 128 128"><style>.st0{fill:#77685A;}</style><path class="st0" d="M64 0C28.7 0 0 28.7 0 64s28.7 64 64 64 64-28.7 64-64S99.3 0 64 0zm0 125.2C30.2 125.2 2.8 97.8 2.8 64S30.2 2.8 64 2.8s61.2 27.5 61.2 61.2-27.4 61.2-61.2 61.2z"/><path class="st0" d="M90.1 63.6l1.8 1.8H79.5v2.2h12.4l-1.8 1.9 1.6 1.5 4.4-4.6-4.4-4.4zM31.9 56.9h-3.3l-4.5 6.9-4.6-6.9h-3.7l6.1 9.2L15 76.6h3.3l5.3-8 5.3 8h3.7l-6.9-10.3zM46.2 56.9h-2.8v8.4h-8v2.5h8v8.8h2.8v-8.8h8.2v-2.5h-8.2zM66.5 72.4l-6-15.5h-3.4l7.8 19.8-2.7 7.8h2.7l10-27.6h-3.1zM101.5 74.4l10.4-15.5v-2H98.6v2h9.6L97.9 74.5v2.1H112v-2.2z"/></svg>