<svg id="Layer_1" xmlns="http://www.w3.org/2000/svg" viewBox="0 0 128 128"><style>.st0{fill:#77685A;}</style><path class="st0" d="M64 0C28.7 0 0 28.7 0 64s28.7 64 64 64 64-28.7 64-64S99.3 0 64 0zm0 125.2C30.2 125.2 2.8 97.8 2.8 64S30.2 2.8 64 2.8s61.2 27.5 61.2 61.2-27.4 61.2-61.2 61.2z"/><path class="st0" d="M48.5 68.7c-.3-.8-.5-1.7-.7-2.5-.6-2.1-1.2-4.2-2.1-6.2-1.9-4.1-4.4-6.5-7.6-7.3 2.5-1.7 4.2-4.6 4.3-8 .1-5.4-4.2-9.9-9.6-10-5.2-.1-9.8 4.3-10 9.5-.1 2.6.9 5.2 2.7 7.1.5.5 1.1 1 1.7 1.4-2.6.7-4.8 2.5-6.7 5.4-2.5 4-3.5 8.3-4 11.7-.4 2.3.7 4.1 2.7 4.5 1 .2 3.3.3 4.2-3.2.2-.9.5-1.7.7-2.6v19.9c0 2.9 1.7 5 4.1 5h.1c1.1 0 2.1-.4 2.8-1.1.9-.9 1.4-2.3 1.4-3.9V77.6h.1v11c0 .7.1 1.7.5 2.6.9 1.7 2.6 2.5 4.6 2s3.2-2 3.2-4.2V67.5c0 .1 0 .1.1.2.3.8.4 1.6.5 2.4.1.4.1.8.2 1.2.4 2.2 2 3.3 4.1 3.1 2.1-.3 3.1-1.9 2.9-4.3 0-.5-.1-1-.2-1.4zM25.4 44.2c.2-3.7 3.4-6.8 7.2-6.8h.1c3.9.1 7 3.3 6.9 7.2-.1 3.9-3.1 6.9-7 6.9h-.1c-1.9 0-3.7-.8-5.1-2.2-1.3-1.4-2-3.2-2-5.1zm20 27.3c-.4.1-.7.1-.9-.9l-.2-1.2c-.2-1-.3-1.9-.6-2.8-.5-1.4-1-2.8-1.6-4.2L41 59.5l-2.7.8v28.6c0 1.1-.4 1.4-1.1 1.6s-1.1 0-1.5-.6c-.1-.3-.2-.7-.2-1.3V74.8h-5.6v13.6c0 .9-.2 1.6-.6 2-.2.2-.5.3-.9.3-1.2 0-1.4-1.4-1.4-2.2V60.6l-3-.7-1.2 4.1c-.7 2.2-1.3 4.4-1.9 6.6-.4 1.3-.8 1.3-1 1.2-.2 0-.7-.1-.5-1.3.5-3.1 1.4-7.1 3.6-10.7 2.1-3.3 4.5-4.7 7.7-4.4 1.3.1 2.6.1 4 0 3.9-.3 6.6 1.5 8.6 6 .8 1.8 1.4 3.7 1.9 5.7.2.9.5 1.7.7 2.6.1.3.1.5.1.9.1.8-.2.9-.6.9zM111.5 69.9c0-.4-.1-.8-.2-1.3-.3-.8-.5-1.6-.7-2.5-.6-2.1-1.2-4.2-2.1-6.2-1.9-4.1-4.4-6.5-7.7-7.3 2.6-1.7 4.2-4.6 4.3-8 .1-5.4-4.2-9.9-9.6-10h-.2c-5.2 0-9.6 4.3-9.8 9.5-.1 2.6.9 5.2 2.7 7.1.5.5 1.1 1 1.7 1.4-2.6.7-4.8 2.5-6.7 5.4-2.5 4-3.5 8.3-4 11.7-.4 2.3.7 4.1 2.7 4.5 1 .2 3.3.3 4.2-3.2.2-.9.5-1.7.7-2.6v19.9c0 2.9 1.7 5 4.1 5h.1c1.1 0 2.1-.4 2.8-1.1.9-.9 1.4-2.3 1.4-3.9V77.5h.1v11c0 .7.1 1.7.5 2.6.9 1.7 2.6 2.5 4.6 2s3.2-2 3.2-4.2V67.4c0 .1 0 .1.1.2.3.8.4 1.6.6 2.4.1.4.1.8.2 1.2.5 2.2 2 3.4 4.1 3.1 2.1-.3 3.2-1.9 2.9-4.4zM88.1 44.2c.3-3.7 3.5-6.8 7.2-6.8h.1c3.9.1 7 3.3 6.9 7.2-.1 3.9-3.1 6.9-7 6.9h-.1c-1.9 0-3.7-.8-5.1-2.2-1.3-1.4-2-3.2-2-5.1zm20.1 27.3c-.4.1-.7.1-.9-.9l-.2-1.2c-.2-1-.3-1.9-.6-2.8-.5-1.4-1-2.8-1.6-4.3l-1.1-2.9-2.7.8v28.6c0 1.1-.4 1.4-1.1 1.6-.7.2-1.1 0-1.5-.6-.1-.3-.2-.7-.2-1.3V74.7h-5.6v13.6c0 .9-.2 1.6-.6 2-.2.2-.5.3-.9.3-1.2 0-1.4-1.4-1.4-2.2V60.5l-3-.7-1.2 4.1c-.7 2.2-1.3 4.4-1.9 6.6-.4 1.3-.8 1.3-1 1.2-.2 0-.7-.1-.5-1.3.5-3.1 1.4-7.1 3.6-10.7 2.1-3.3 4.5-4.7 7.7-4.4 1.3.1 2.6.1 4 0 3.9-.3 6.6 1.5 8.6 6 .8 1.8 1.4 3.7 1.9 5.8.2.9.5 1.7.7 2.6.1.2.1.4.1.9.1.8-.2.9-.6.9zM54.4 64.7h19.1v2.5H54.4zM54.4 70.8h19.1v2.5H54.4z"/></svg>