<svg id="Layer_1" xmlns="http://www.w3.org/2000/svg" viewBox="0 0 128 128"><style>.st0{fill:#77685A;}</style><path class="st0" d="M64 0C28.7 0 0 28.7 0 64s28.7 64 64 64 64-28.7 64-64S99.3 0 64 0zm0 125.2C30.2 125.2 2.8 97.8 2.8 64S30.2 2.8 64 2.8s61.2 27.5 61.2 61.2-27.4 61.2-61.2 61.2z"/><path class="st0" d="M82.4 77.8L54.6 23l.4-.7-8.4-1.1-9.4 4.8-3.6 7.2.8.1 28 55.1c0 .1.4.4.9.8L85 108.7 82.6 80c.2-1-.1-1.9-.2-2.2zM53 25.8l26.9 53v.6h-.1v.4c-.1.5-.6 1-1.5 1.5L51.5 28.4l1.5-2.6zM76 83c-2 3.9-4.9 3.7-6 3.3L43.2 33.5l6.1-3.1L76 83zM39.2 28l7.8-3.9 3.5.5-1.7 3-5 2.5-2.8 1.4-3.3-.5 1.5-3zm26 59.2l-.3-.2-.1.1c0-.1-.1-.1-.1-.1l-27-53.2 2.8.4L67.3 87c-1 .5-1.7.4-2.1.2zm10.4 9.2l2.2 2.1-9.8-8.8c.4-.1.9-.4 1.4-.7.5.1 1.1.2 1.8.2 2.3 0 5.2-1.2 7.2-5 .6-.2 1.2-.5 1.7-.8l.9 10.3c-1.4 3.7-5.4 2.7-5.4 2.7z"/><ellipse transform="rotate(63.07 44.196 27.802)" class="st0" cx="44.2" cy="27.8" rx="1.1" ry="3.2"/></svg>