<svg id="Layer_1" xmlns="http://www.w3.org/2000/svg" viewBox="0 0 128 128"><style>.st0{fill:#77685A;}</style><path class="st0" d="M64 0C28.7 0 0 28.7 0 64s28.7 64 64 64 64-28.7 64-64S99.3 0 64 0zm0 125.2C30.2 125.2 2.8 97.8 2.8 64S30.2 2.8 64 2.8s61.2 27.5 61.2 61.2-27.4 61.2-61.2 61.2z"/><path class="st0" d="M105.1 57.7c-3.9-1.2-6.8-3.8-9.6-8.7l-1.2-2.2c-1.3-2.3-2.7-4.7-4.2-7-3.8-5.7-9.1-8-14.7-6.7-2.3.5-5.2 1.9-7.5 3-1.1.5-2.5 1.2-3.2 1.4-3.7-3.5-8.6-5.2-13.6-4.8-5.2.4-9.9 3.2-12.8 7.5-1.1 1.6-2.3 3.5-3.6 6-2.8 5.2-5.8 10-12 11.9-2.1.6-3.4 2-3.6 3.8-.2 1.8.8 3.6 2.8 4.7 4 2.3 7.1 5.7 9.4 10.5 5.6 11.4 15 17.4 28.8 18.2 1.5.1 3 .1 4.4.1 16.6 0 27.4-6.2 33.9-19.4 1.1-2.2 3-4.1 5.1-6 1.1-1 2.1-2 3.1-3.1l.7-.7c1.1-1.1 2.4-2.4 2.3-4-.5-1.9-2.7-4-4.5-4.5zm-.1 6.4c-.3.3-.5.6-.8.8-.9 1-1.9 2-2.9 2.9-2.1 2-4.4 4.1-5.7 6.8C89 88 78 93.5 59.9 92.4c-12.7-.8-21.3-6.2-26.4-16.7-2.6-5.3-6-9.1-10.6-11.6-.9-.5-1.5-1.3-1.4-2 .1-.6.7-1.2 1.6-1.5 7.2-2.1 10.7-7.7 13.7-13.2 1.3-2.4 2.3-4.1 3.4-5.7 2.5-3.6 6.5-5.9 10.8-6.3.4 0 .8-.1 1.3-.1 4 0 7.8 1.6 10.6 4.5 1 1 2.2.4 5.9-1.3 2.2-1 5-2.4 7-2.8 6-1.4 10 2.9 11.8 5.6 1.5 2.2 2.8 4.5 4.1 6.8l1.3 2.2c2.1 3.7 5.3 8.1 11.2 10 .9.3 2.1 1.5 2.1 2 .1.4-.8 1.3-1.3 1.8z"/><path class="st0" d="M86.1 54.9c-3.5-2.7-10.9-4.3-22-4.9H64c-8.6-.1-15.5 1.4-21.5 4.7-3.6 2-7.2 4.7-7.1 9.8 0 4.1 2.4 7.3 7.1 9.5 7.3 3.4 14.6 5.1 21.7 5.1 7.3 0 14.6-1.8 21.6-5.3 4.4-2.2 6.9-5.4 7.1-8.9.3-3.7-2.2-7.2-6.8-10zm-1.3 16.4c-13.2 6.6-27 6.7-41 .2-3.8-1.8-5.5-4-5.5-7 0-3.5 2.2-5.5 5.7-7.4 5.4-3 11.6-4.4 19.3-4.4h.7c7.2.4 16.6 1.4 20.4 4.3l.4.3c3.6 2.1 5.6 4.8 5.5 7.4-.1 2.6-2.1 4.9-5.5 6.6z"/></svg>