<svg id="Layer_1" xmlns="http://www.w3.org/2000/svg" viewBox="0 0 128 128"><style>.st0{fill:#77685A;}</style><path class="st0" d="M64 0C28.7 0 0 28.7 0 64s28.7 64 64 64 64-28.7 64-64S99.3 0 64 0zm0 125.2C30.2 125.2 2.8 97.8 2.8 64S30.2 2.8 64 2.8s61.2 27.5 61.2 61.2-27.4 61.2-61.2 61.2z"/><path class="st0" d="M88.3 71.6c-.4-1.3-.8-2.6-1.1-4-.9-3.2-1.8-6.5-3.2-9.6-3.3-7.1-7.8-10.9-13.7-11.5 4.9-2.3 8.2-7.2 8.4-13 .2-8.1-6.3-14.9-14.4-15-7.8-.2-14.7 6.4-14.9 14.3-.1 4 1.3 7.7 4.1 10.6 1.3 1.4 2.8 2.4 4.5 3.2-4.9.5-8.9 3.4-12.2 8.6-3.9 6.1-5.4 12.9-6.3 18.2-.5 3.2.9 5.6 3.6 6.2 1.6.3 4.5.2 5.8-4.5.8-3.2 1.8-6.3 2.7-9.4V102.6c0 4.3 2.2 7 5.7 7.1h.1c1.5 0 2.9-.5 3.9-1.5 1.3-1.3 2-3.2 2-5.7V84.7h1.8v18.2c0 1 .1 2.5.7 3.7 1.3 2.4 3.6 3.4 6.3 2.8 2-.5 4.4-1.9 4.4-5.9V64.9c.6 1.5 1.1 3 1.6 4.5.4 1.3.6 2.6.9 4 .1.6.2 1.3.4 1.9.6 3 2.7 4.6 5.5 4.2s4.2-2.5 3.9-5.9c-.2-.7-.3-1.4-.5-2zm-33-30.2c-2.2-2.3-3.3-5.3-3.3-8.6.2-6.3 5.6-11.6 11.9-11.6h.2c6.6.1 11.8 5.6 11.7 12.2-.1 6.6-5.4 11.6-11.9 11.7-3.3 0-6.3-1.3-8.6-3.7zm29.1 35.3c-1 .1-2 0-2.4-2l-.3-1.8c-.3-1.4-.5-2.9-1-4.4-.7-2.3-1.6-4.5-2.5-6.7l-1.5-3.9-3 .9v44.6c0 1.9-.7 2.8-2.3 3.2-1.5.4-2.5-.1-3.2-1.4-.3-.5-.4-1.3-.4-2.5v-21h-7.3v20.6c0 1.7-.4 3-1.2 3.7-.5.5-1.3.6-2 .7-2.7 0-3-3.1-3-4.3V59l-3.4-.8-1.6 5.5c-1.1 3.5-2.1 7-3.1 10.6-.8 2.8-2 2.6-2.6 2.5-1.6-.3-1.6-1.8-1.4-3 .8-5 2.3-11.4 5.9-17.2 3.4-5.4 7.5-7.8 12.9-7.3 2 .2 4.1.2 6.2 0 6.4-.5 11 2.6 14.4 9.9 1.3 2.9 2.2 6.1 3.1 9.2.4 1.4.8 2.7 1.2 4 .1.4.2.9.2 1.6.1 2.2-.9 2.6-1.7 2.7z"/></svg>